<mxfile host="65bd71144e">
    <diagram id="PMA9-Z5wLiukV3QmTyVr" name="Page-1">
        <mxGraphModel dx="1601" dy="458" grid="1" gridSize="10" guides="1" tooltips="1" connect="1" arrows="1" fold="1" page="1" pageScale="1" pageWidth="850" pageHeight="1100" math="0" shadow="0">
            <root>
                <mxCell id="0"/>
                <mxCell id="1" parent="0"/>
                <mxCell id="2" value="&lt;div style=&quot;color: rgb(212 , 212 , 212) ; background-color: rgb(30 , 30 , 30) ; font-family: &amp;#34;source code pro&amp;#34; , &amp;#34;menlo&amp;#34; , &amp;#34;monaco&amp;#34; , &amp;#34;courier new&amp;#34; , monospace , &amp;#34;menlo&amp;#34; , &amp;#34;monaco&amp;#34; , &amp;#34;courier new&amp;#34; , monospace ; font-size: 13px ; line-height: 20px&quot;&gt;&lt;span style=&quot;color: #6a9955&quot;&gt;complete phrase&lt;/span&gt;&lt;/div&gt;" style="text;html=1;align=center;verticalAlign=middle;resizable=0;points=[];autosize=1;strokeColor=none;fillColor=none;" parent="1" vertex="1">
                    <mxGeometry x="-5" y="115" width="130" height="30" as="geometry"/>
                </mxCell>
                <mxCell id="3" value="&lt;div style=&quot;color: rgb(212 , 212 , 212) ; background-color: rgb(30 , 30 , 30) ; font-family: &amp;#34;source code pro&amp;#34; , &amp;#34;menlo&amp;#34; , &amp;#34;monaco&amp;#34; , &amp;#34;courier new&amp;#34; , monospace , &amp;#34;menlo&amp;#34; , &amp;#34;monaco&amp;#34; , &amp;#34;courier new&amp;#34; , monospace ; font-size: 13px ; line-height: 20px&quot;&gt;&lt;span style=&quot;color: #6a9955&quot;&gt;render phrase&lt;/span&gt;&lt;/div&gt;" style="text;html=1;align=center;verticalAlign=middle;resizable=0;points=[];autosize=1;strokeColor=none;fillColor=none;" parent="1" vertex="1">
                    <mxGeometry x="35" y="190" width="120" height="30" as="geometry"/>
                </mxCell>
                <mxCell id="4" value="&lt;div style=&quot;color: rgb(212 , 212 , 212) ; background-color: rgb(30 , 30 , 30) ; font-family: &amp;#34;source code pro&amp;#34; , &amp;#34;menlo&amp;#34; , &amp;#34;monaco&amp;#34; , &amp;#34;courier new&amp;#34; , monospace , &amp;#34;menlo&amp;#34; , &amp;#34;monaco&amp;#34; , &amp;#34;courier new&amp;#34; , monospace ; font-size: 13px ; line-height: 20px&quot;&gt;&lt;span style=&quot;color: #dcdcaa&quot;&gt;performUnitOfWork&lt;/span&gt;&lt;/div&gt;" style="text;html=1;align=center;verticalAlign=middle;resizable=0;points=[];autosize=1;strokeColor=none;fillColor=none;" vertex="1" parent="1">
                    <mxGeometry x="155" y="220" width="150" height="30" as="geometry"/>
                </mxCell>
                <mxCell id="5" value="&lt;div style=&quot;background-color: rgb(30 , 30 , 30) ; font-family: &amp;#34;source code pro&amp;#34; , &amp;#34;menlo&amp;#34; , &amp;#34;monaco&amp;#34; , &amp;#34;courier new&amp;#34; , monospace , &amp;#34;menlo&amp;#34; , &amp;#34;monaco&amp;#34; , &amp;#34;courier new&amp;#34; , monospace ; font-size: 13px ; line-height: 20px&quot;&gt;&lt;font color=&quot;#dcdcaa&quot;&gt;next =&amp;nbsp;&lt;/font&gt;&lt;span style=&quot;color: rgb(220 , 220 , 170) ; font-family: &amp;#34;source code pro&amp;#34; , &amp;#34;menlo&amp;#34; , &amp;#34;monaco&amp;#34; , &amp;#34;courier new&amp;#34; , monospace , &amp;#34;menlo&amp;#34; , &amp;#34;monaco&amp;#34; , &amp;#34;courier new&amp;#34; , monospace&quot;&gt;beginWork&lt;/span&gt;&lt;span style=&quot;color: rgb(220 , 220 , 170)&quot;&gt;()&lt;/span&gt;&lt;br&gt;&lt;/div&gt;" style="text;html=1;align=center;verticalAlign=middle;resizable=0;points=[];autosize=1;strokeColor=none;fillColor=none;" vertex="1" parent="1">
                    <mxGeometry x="200" y="260" width="160" height="30" as="geometry"/>
                </mxCell>
                <mxCell id="6" value="&lt;div style=&quot;background-color: rgb(30 , 30 , 30) ; font-family: &amp;#34;source code pro&amp;#34; , &amp;#34;menlo&amp;#34; , &amp;#34;monaco&amp;#34; , &amp;#34;courier new&amp;#34; , monospace , &amp;#34;menlo&amp;#34; , &amp;#34;monaco&amp;#34; , &amp;#34;courier new&amp;#34; , monospace ; font-size: 13px ; line-height: 20px&quot;&gt;&lt;font color=&quot;#dcdcaa&quot;&gt;next = CompleteWOrk()&lt;/font&gt;&lt;/div&gt;" style="text;html=1;align=center;verticalAlign=middle;resizable=0;points=[];autosize=1;strokeColor=none;fillColor=none;" vertex="1" parent="1">
                    <mxGeometry x="200" y="290" width="180" height="30" as="geometry"/>
                </mxCell>
                <mxCell id="7" value="&lt;div style=&quot;background-color: rgb(30 , 30 , 30) ; font-family: &amp;#34;source code pro&amp;#34; , &amp;#34;menlo&amp;#34; , &amp;#34;monaco&amp;#34; , &amp;#34;courier new&amp;#34; , monospace , &amp;#34;menlo&amp;#34; , &amp;#34;monaco&amp;#34; , &amp;#34;courier new&amp;#34; , monospace ; font-size: 13px ; line-height: 20px&quot;&gt;&lt;font color=&quot;#dcdcaa&quot;&gt;commitWork&lt;/font&gt;&lt;/div&gt;" style="text;html=1;align=center;verticalAlign=middle;resizable=0;points=[];autosize=1;strokeColor=none;fillColor=none;" vertex="1" parent="1">
                    <mxGeometry x="110" y="370" width="90" height="30" as="geometry"/>
                </mxCell>
                <mxCell id="8" value="&lt;span style=&quot;color: rgb(209 , 90 , 66) ; font-family: &amp;#34;menlo&amp;#34; , &amp;#34;monaco&amp;#34; , &amp;#34;consolas&amp;#34; , &amp;#34;courier new&amp;#34; , monospace ; font-size: 13.92px ; background-color: rgb(67 , 25 , 25)&quot;&gt;commitRoot&lt;/span&gt;" style="text;html=1;align=center;verticalAlign=middle;resizable=0;points=[];autosize=1;strokeColor=none;fillColor=none;" vertex="1" parent="1">
                    <mxGeometry x="110" y="420" width="100" height="20" as="geometry"/>
                </mxCell>
                <mxCell id="9" value="&lt;div class=&quot;language-sh extra-class&quot; style=&quot;position: relative ; background-color: rgb(49 , 51 , 56) ; border-radius: 6px ; color: rgb(151 , 165 , 177) ; font-family: , &amp;quot;system-ui&amp;quot; , &amp;quot;segoe ui&amp;quot; , &amp;quot;roboto&amp;quot; , &amp;quot;oxygen&amp;quot; , &amp;quot;ubuntu&amp;quot; , &amp;quot;cantarell&amp;quot; , &amp;quot;fira sans&amp;quot; , &amp;quot;droid sans&amp;quot; , &amp;quot;helvetica neue&amp;quot; , sans-serif ; font-size: 16px&quot;&gt;&lt;pre class=&quot;language-sh&quot; style=&quot;color: rgb(170 , 166 , 161) ; background: transparent ; font-family: &amp;quot;consolas&amp;quot; , &amp;quot;monaco&amp;quot; , &amp;quot;andale mono&amp;quot; , &amp;quot;ubuntu mono&amp;quot; , monospace ; font-size: 1em ; word-spacing: normal ; word-break: normal ; overflow-wrap: normal ; line-height: 1.4 ; padding: 1.25rem 1.5rem ; margin-top: 0.85rem ; margin-bottom: 0.85rem ; overflow: auto ; border-radius: 6px ; position: relative ; z-index: 1&quot;&gt;&lt;code style=&quot;font-family: , &amp;quot;menlo&amp;quot; , &amp;quot;monaco&amp;quot; , &amp;quot;consolas&amp;quot; , &amp;quot;courier new&amp;quot; , monospace ; color: rgb(193 , 191 , 189) ; padding: 0px ; margin: 0px ; font-size: 0.85em ; background-color: transparent ; border-radius: 0px&quot;&gt;创建fiberRootNode、rootFiber、updateQueue（&lt;span class=&quot;token variable&quot; style=&quot;color: rgb(118 , 169 , 138)&quot;&gt;&lt;span class=&quot;token variable&quot;&gt;`&lt;/span&gt;legacyCreateRootFromDOMContainer&lt;span class=&quot;token variable&quot;&gt;`&lt;/span&gt;&lt;/span&gt;）&lt;br&gt;&lt;br&gt;    &lt;span class=&quot;token operator&quot; style=&quot;color: rgb(105 , 175 , 174)&quot;&gt;|&lt;/span&gt;&lt;br&gt;    &lt;span class=&quot;token operator&quot; style=&quot;color: rgb(105 , 175 , 174)&quot;&gt;|&lt;/span&gt;&lt;br&gt;    &lt;span class=&quot;token function&quot; style=&quot;color: rgb(199 , 131 , 83)&quot;&gt;v&lt;/span&gt;&lt;br&gt;&lt;br&gt;创建Update对象（&lt;span class=&quot;token variable&quot; style=&quot;color: rgb(118 , 169 , 138)&quot;&gt;&lt;span class=&quot;token variable&quot;&gt;`&lt;/span&gt;updateContainer&lt;span class=&quot;token variable&quot;&gt;`&lt;/span&gt;&lt;/span&gt;）&lt;br&gt;&lt;br&gt;    &lt;span class=&quot;token operator&quot; style=&quot;color: rgb(105 , 175 , 174)&quot;&gt;|&lt;/span&gt;&lt;br&gt;    &lt;span class=&quot;token operator&quot; style=&quot;color: rgb(105 , 175 , 174)&quot;&gt;|&lt;/span&gt;&lt;br&gt;    &lt;span class=&quot;token function&quot; style=&quot;color: rgb(199 , 131 , 83)&quot;&gt;v&lt;/span&gt;&lt;br&gt;&lt;br&gt;从fiber到root（&lt;span class=&quot;token variable&quot; style=&quot;color: rgb(118 , 169 , 138)&quot;&gt;&lt;span class=&quot;token variable&quot;&gt;`&lt;/span&gt;markUpdateLaneFromFiberToRoot&lt;span class=&quot;token variable&quot;&gt;`&lt;/span&gt;&lt;/span&gt;）&lt;br&gt;&lt;br&gt;    &lt;span class=&quot;token operator&quot; style=&quot;color: rgb(105 , 175 , 174)&quot;&gt;|&lt;/span&gt;&lt;br&gt;    &lt;span class=&quot;token operator&quot; style=&quot;color: rgb(105 , 175 , 174)&quot;&gt;|&lt;/span&gt;&lt;br&gt;    &lt;span class=&quot;token function&quot; style=&quot;color: rgb(199 , 131 , 83)&quot;&gt;v&lt;/span&gt;&lt;br&gt;&lt;br&gt;调度更新（&lt;span class=&quot;token variable&quot; style=&quot;color: rgb(118 , 169 , 138)&quot;&gt;&lt;span class=&quot;token variable&quot;&gt;`&lt;/span&gt;ensureRootIsScheduled&lt;span class=&quot;token variable&quot;&gt;`&lt;/span&gt;&lt;/span&gt;）&lt;br&gt;&lt;br&gt;    &lt;span class=&quot;token operator&quot; style=&quot;color: rgb(105 , 175 , 174)&quot;&gt;|&lt;/span&gt;&lt;br&gt;    &lt;span class=&quot;token operator&quot; style=&quot;color: rgb(105 , 175 , 174)&quot;&gt;|&lt;/span&gt;&lt;br&gt;    &lt;span class=&quot;token function&quot; style=&quot;color: rgb(199 , 131 , 83)&quot;&gt;v&lt;/span&gt;&lt;br&gt;&lt;br&gt;render阶段（&lt;span class=&quot;token variable&quot; style=&quot;color: rgb(118 , 169 , 138)&quot;&gt;&lt;span class=&quot;token variable&quot;&gt;`&lt;/span&gt;performSyncWorkOnRoot&lt;span class=&quot;token variable&quot;&gt;`&lt;/span&gt;&lt;/span&gt; 或 &lt;span class=&quot;token variable&quot; style=&quot;color: rgb(118 , 169 , 138)&quot;&gt;&lt;span class=&quot;token variable&quot;&gt;`&lt;/span&gt;performConcurrentWorkOnRoot&lt;span class=&quot;token variable&quot;&gt;`&lt;/span&gt;&lt;/span&gt;）&lt;br&gt;&lt;br&gt;    &lt;span class=&quot;token operator&quot; style=&quot;color: rgb(105 , 175 , 174)&quot;&gt;|&lt;/span&gt;&lt;br&gt;    &lt;span class=&quot;token operator&quot; style=&quot;color: rgb(105 , 175 , 174)&quot;&gt;|&lt;/span&gt;&lt;br&gt;    &lt;span class=&quot;token function&quot; style=&quot;color: rgb(199 , 131 , 83)&quot;&gt;v&lt;/span&gt;&lt;br&gt;&lt;br&gt;commit阶段（&lt;span class=&quot;token variable&quot; style=&quot;color: rgb(118 , 169 , 138)&quot;&gt;&lt;span class=&quot;token variable&quot;&gt;`&lt;/span&gt;commitRoot&lt;span class=&quot;token variable&quot;&gt;`&lt;/span&gt;&lt;/span&gt;）&lt;br&gt;&lt;/code&gt;&lt;/pre&gt;&lt;/div&gt;&lt;h2 id=&quot;react的其他入口函数&quot; style=&quot;line-height: 1.25 ; font-size: 1.65rem ; padding-bottom: 0.3rem ; border-bottom: 1px solid rgb(64 , 67 , 69) ; margin-top: -3.1rem ; padding-top: 4.6rem ; margin-bottom: 0px ; color: rgb(151 , 165 , 177) ; font-family: , &amp;quot;system-ui&amp;quot; , &amp;quot;segoe ui&amp;quot; , &amp;quot;roboto&amp;quot; , &amp;quot;oxygen&amp;quot; , &amp;quot;ubuntu&amp;quot; , &amp;quot;cantarell&amp;quot; , &amp;quot;fira sans&amp;quot; , &amp;quot;droid sans&amp;quot; , &amp;quot;helvetica neue&amp;quot; , sans-serif ; background-color: rgb(43 , 44 , 45)&quot;&gt;&lt;/h2&gt;" style="text;html=1;align=left;verticalAlign=middle;resizable=0;points=[];autosize=1;strokeColor=none;fillColor=none;" vertex="1" parent="1">
                    <mxGeometry x="-150" y="760" width="690" height="800" as="geometry"/>
                </mxCell>
            </root>
        </mxGraphModel>
    </diagram>
</mxfile>
